<?xml version="1.0" standalone="no"?><svg xmlns="http://www.w3.org/2000/svg" viewBox="0 0 1440 320"><path fill="#fff" fill-opacity="1" d="M0,192L21.8,165.3C43.6,139,87,85,131,90.7C174.5,96,218,160,262,160C305.5,160,349,96,393,58.7C436.4,21,480,11,524,53.3C567.3,96,611,192,655,202.7C698.2,213,742,139,785,128C829.1,117,873,171,916,176C960,181,1004,139,1047,106.7C1090.9,75,1135,53,1178,42.7C1221.8,32,1265,32,1309,48C1352.7,64,1396,96,1418,112L1440,128L1440,320L1418.2,320C1396.4,320,1353,320,1309,320C1265.5,320,1222,320,1178,320C1134.5,320,1091,320,1047,320C1003.6,320,960,320,916,320C872.7,320,829,320,785,320C741.8,320,698,320,655,320C610.9,320,567,320,524,320C480,320,436,320,393,320C349.1,320,305,320,262,320C218.2,320,175,320,131,320C87.3,320,44,320,22,320L0,320Z"></path></svg>
